<?xml version="1.0" encoding="UTF-8"?>
<svg id="Layer_2" data-name="Layer 2" xmlns="http://www.w3.org/2000/svg" viewBox="0 0 128.43 109.28">
  <defs>
    <style>
      .cls-1 {
        stroke-width: 0px;
      }

      .cls-1, .cls-2 {
        fill: #1083ad;
      }

      .cls-3 {
        fill: #fff;
        font-size: 74.16px;
        stroke: #1083ad;
        stroke-miterlimit: 10;
        stroke-width: 1.28px;
      }

      .cls-3, .cls-2 {
        font-family: AlfredDrake, AlfredDrake;
      }

      .cls-2 {
        font-size: 88.41px;
      }
    </style>
  </defs>
  <g id="Layer_1-2" data-name="Layer 1">
    <g>
      <polygon class="cls-1" points="40.39 80.49 12.26 82.03 22.67 62.7 .54 46.77 24.66 44.45 18.88 24.12 41.34 27.84 51.04 13.23 62.95 24.87 78.84 13.31 88.05 28.5 105.3 22.6 108.87 41.64 128.08 51.99 111.05 66.35 113.97 84.55 90.56 82.27 85.35 96.26 66.81 86.48 46.43 99.07 40.39 80.49"/>
      <path class="cls-1" d="M128.43,51.95l-19.38-10.45-3.6-19.17-17.31,5.92-9.24-15.24-15.93,11.59-11.96-11.69-9.76,14.7-22.64-3.75,5.8,20.4L0,46.62l22.41,16.14-10.5,19.49,28.33-1.55,6.07,18.67,20.5-12.66,18.64,9.84,5.24-14.07,23.51,2.29-2.94-18.34,17.16-14.48ZM112.06,82.85l-22.61-2.21-5,13.42-17.71-9.35-19.39,11.98-5.77-17.77-26.61,1.46,9.75-18.11-19.98-14.39,21.98-2.11-5.62-19.75,21.05,3.49,9.17-13.82,11.47,11.22,15.56-11.32,8.96,14.78,16.72-5.72,3.37,17.95,17.94,9.67-16.02,13.52,2.73,17.07Z"/>
      <polygon class="cls-1" points="59.33 11.13 63.45 20.8 64.52 9.95 59.33 11.13"/>
      <polygon class="cls-1" points="66.05 14.69 65.45 19.05 69.51 15 66.05 14.69"/>
      <polygon class="cls-1" points="17.68 38.85 21.56 41.32 19.54 36.1 17.68 38.85"/>
      <polygon class="cls-1" points="85.95 15.68 89.28 24.65 90.41 18.24 85.95 15.68"/>
      <polygon class="cls-1" points="93.86 18.09 90.13 25.63 98.71 18.59 93.86 18.09"/>
      <polygon class="cls-1" points="18.03 29.43 12.48 17.49 23.04 22.59 16.07 21.39 18.03 29.43"/>
      <polygon class="cls-1" points="115.2 77.32 120.5 90.48 108.46 86.14 116.75 86.72 115.2 77.32"/>
      <polygon class="cls-1" points="67.02 90.1 63.54 102.66 66.85 100.58 70.55 105.02 67.02 90.1"/>
      <polygon class="cls-1" points="30.41 83.52 38.91 82.9 28.96 89.64 30.41 83.52"/>
      <polygon class="cls-1" points="38.65 84.55 33.52 88.78 38.43 98.23 38.65 84.55"/>
      <polygon class="cls-1" points="92.63 86.55 93.03 96.52 97.24 97.02 92.63 86.55"/>
      <polygon class="cls-1" points="95.24 86.17 99.25 92.38 101.26 89.62 95.24 86.17"/>
      <polygon class="cls-1" points="113.19 66.99 119.04 74.28 123.39 72.63 113.19 66.99"/>
      <polygon class="cls-1" points="114.11 66.9 119.97 67.56 122.82 63.96 114.11 66.9"/>
      <polygon class="cls-1" points="120.94 37.03 111.09 40.32 124.11 40.5 120.94 37.03"/>
      <polygon class="cls-1" points="111.53 39.5 117.12 30.93 119.62 35.14 111.53 39.5"/>
      <polygon class="cls-1" points="40.73 24.86 37.39 14.76 42.27 17.9 40.73 24.86"/>
      <polygon class="cls-1" points="21.17 42.39 10.01 43.86 14.09 39.85 21.17 42.39"/>
      <polygon class="cls-1" points="35.38 17.65 39.53 25.17 35.31 23.98 35.38 17.65"/>
      <polygon class="cls-1" points="13.53 60.09 19.95 63.98 11.4 65.08 13.53 60.09"/>
      <polygon class="cls-1" points="7.7 67.99 18.77 65.33 12.16 70.65 7.7 67.99"/>
      <polygon class="cls-1" points="64.14 90.7 59.91 94.41 62.09 95.27 64.14 90.7"/>
      <polygon class="cls-1" points="69.36 91.23 69.99 96.26 72.04 95.66 69.36 91.23"/>
    </g>
    <text class="cls-2" transform="translate(32.6 79.57) scale(1.13 1)"><tspan x="0" y="0">S</tspan></text>
    <text class="cls-3" transform="translate(37 71.05)"><tspan x="0" y="0">S</tspan></text>
  </g>
</svg>